<?xml version="1.0" encoding="UTF-8"?>
<svg id="Layer_1" data-name="Layer 1" xmlns="http://www.w3.org/2000/svg" viewBox="0 0 400 400">
  <defs>
    <style>
      .cls-1 {
        stroke: #7f7301;
      }

      .cls-1, .cls-2, .cls-3, .cls-4 {
        fill: none;
        stroke-linecap: round;
        stroke-linejoin: round;
        stroke-width: 5px;
      }

      .cls-2 {
        stroke: #7f0000;
      }

      .cls-3 {
        stroke: #01017f;
      }

      .cls-5 {
        fill: #ff0101;
      }

      .cls-6 {
        fill: #0101fd;
      }

      .cls-7 {
        fill: #ddd;
      }

      .cls-4 {
        stroke: #fff;
      }

      .cls-8 {
        fill: #fff001;
      }
    </style>
  </defs>
  <path class="cls-5" d="M32.23,0h135.52c17.8,0,32.25,14.45,32.25,32.25v135.5c0,17.8-14.45,32.25-32.25,32.25H32.25c-17.8,0-32.25-14.45-32.25-32.25V32.23C0,14.44,14.44,0,32.23,0Z"/>
  <rect class="cls-6" x="200" width="200" height="200" rx="32.25" ry="32.25"/>
  <rect class="cls-8" y="200" width="200" height="200" rx="32.25" ry="32.25"/>
  <rect class="cls-7" x="200" y="200" width="200" height="200" rx="32.25" ry="32.25"/>
  <g>
    <path class="cls-2" d="M134.48,70.08l-4.58-4.58c-1.68-1.7-4.42-1.71-6.12-.03-.01.01-.02.02-.03.03l-58.25,58.25c-1.7,1.68-1.71,4.42-.03,6.12.01.01.02.02.03.03l4.58,4.58c1.65,1.7,4.37,1.74,6.07.08.03-.03.06-.05.08-.08l58.25-58.25c1.7-1.65,1.74-4.37.08-6.07-.03-.03-.05-.06-.08-.08"/>
    <path class="cls-2" d="M107.15,82.11l10.73,10.73"/>
    <path class="cls-2" d="M74.95,78.53v14.31"/>
    <path class="cls-2" d="M125.04,107.15v14.31"/>
    <path class="cls-2" d="M92.84,64.22v7.16"/>
    <path class="cls-2" d="M82.1,85.68h-14.31"/>
    <path class="cls-2" d="M132.19,114.31h-14.31"/>
    <path class="cls-2" d="M96.41,67.79h-7.16"/>
  </g>
  <g>
    <polyline class="cls-1" points="108.95 319.68 67.79 278.53 67.79 267.79 78.53 267.79 119.68 308.95"/>
    <line class="cls-1" x1="103.58" y1="325.05" x2="125.05" y2="303.58"/>
    <line class="cls-1" x1="114.31" y1="314.31" x2="128.63" y2="328.63"/>
    <line class="cls-1" x1="125.05" y1="332.21" x2="132.21" y2="325.05"/>
  </g>
  <g>
    <path class="cls-4" d="M292.61,312.52c-.65-2.52-2.62-4.49-5.14-5.14l-21.95-5.66c-.95-.27-1.5-1.26-1.23-2.21.17-.6.64-1.06,1.23-1.23l21.95-5.66c2.52-.65,4.49-2.62,5.14-5.14l5.66-21.95c.27-.95,1.25-1.51,2.2-1.24.6.17,1.07.64,1.24,1.24l5.66,21.95c.65,2.52,2.62,4.49,5.14,5.14l21.95,5.66c.95.26,1.51,1.25,1.25,2.2-.17.61-.64,1.08-1.25,1.25l-21.95,5.66c-2.52.65-4.49,2.62-5.14,5.14l-5.66,21.95c-.27.95-1.25,1.51-2.2,1.24-.6-.17-1.07-.64-1.24-1.24l-5.66-21.95Z"/>
    <path class="cls-4" d="M328.62,267.8v14.31"/>
    <path class="cls-4" d="M335.77,274.96h-14.31"/>
    <path class="cls-4" d="M271.37,317.89v7.16"/>
    <path class="cls-4" d="M274.95,321.47h-7.16"/>
  </g>
  <path class="cls-3" d="M325.05,103.13c0,15.65-10.96,23.48-23.98,28.02-.68.23-1.42.22-2.1-.03-13.06-4.51-24.01-12.34-24.01-27.99v-21.92c0-1.73,1.4-3.13,3.13-3.13,6.26,0,14.09-3.76,19.54-8.52,1.37-1.17,3.39-1.17,4.76,0,5.48,4.79,13.28,8.52,19.54,8.52,1.73,0,3.13,1.4,3.13,3.13v21.92Z"/>
</svg>